<svg xmlns="http://www.w3.org/2000/svg" xmlns:xlink="http://www.w3.org/1999/xlink" width="500" zoomAndPan="magnify" viewBox="0 0 375 374.999991" height="500" preserveAspectRatio="xMidYMid meet" version="1.0"><defs><g/></defs><g fill="#c1ff72" fill-opacity="1"><g transform="translate(45.333958, 268.368154)"><g><path d="M 114.230469 -174.171875 C 93.207031 -174.171875 74.375 -166.640625 59.941406 -153.773438 L 52.09375 -169.464844 L 21.96875 -169.464844 L 21.96875 61.195312 L 67.785156 61.195312 L 67.785156 -9.101562 C 80.652344 0 96.65625 5.335938 114.230469 5.335938 C 165.382812 5.335938 203.042969 -33.265625 203.042969 -84.730469 C 203.042969 -135.886719 165.382812 -174.171875 114.230469 -174.171875 Z M 110.464844 -38.285156 C 83.789062 -38.285156 64.332031 -58.058594 64.332031 -84.730469 C 64.332031 -111.09375 83.789062 -131.179688 110.464844 -131.179688 C 137.140625 -131.179688 156.597656 -111.09375 156.597656 -84.730469 C 156.597656 -58.058594 137.140625 -38.285156 110.464844 -38.285156 Z M 110.464844 -38.285156 "/></g></g></g><g fill="#c1ff72" fill-opacity="1"><g transform="translate(243.66903, 268.368154)"><g><path d="M 18.515625 0 L 67.15625 0 L 67.15625 -48.957031 L 18.515625 -48.957031 Z M 18.515625 0 "/></g></g></g></svg>