<svg xmlns="http://www.w3.org/2000/svg" xmlns:xlink="http://www.w3.org/1999/xlink" width="500" zoomAndPan="magnify" viewBox="0 0 375 374.999991" height="500" preserveAspectRatio="xMidYMid meet" version="1.0"><defs><g/><clipPath id="d93e389a62"><path d="M 15.421875 18.75 L 358 18.75 L 358 362 L 15.421875 362 Z M 15.421875 18.75 " clip-rule="nonzero"/></clipPath><clipPath id="09e20f9709"><path d="M 187.5 18.75 C 92.464844 18.75 15.421875 95.792969 15.421875 190.828125 C 15.421875 285.863281 92.464844 362.902344 187.5 362.902344 C 282.535156 362.902344 359.578125 285.863281 359.578125 190.828125 C 359.578125 95.792969 282.535156 18.75 187.5 18.75 " clip-rule="nonzero"/></clipPath></defs><g clip-path="url(#d93e389a62)"><g clip-path="url(#09e20f9709)"><path fill="#080603" d="M 15.421875 18.75 L 357.773438 18.75 L 357.773438 361.101562 L 15.421875 361.101562 Z M 15.421875 18.75 " fill-opacity="1" fill-rule="nonzero"/></g></g><g fill="#c1ff72" fill-opacity="1"><g transform="translate(82.855344, 260.649329)"><g><path d="M 108.734375 -165.789062 C 88.71875 -165.789062 70.796875 -158.621094 57.054688 -146.371094 L 49.585938 -161.308594 L 20.910156 -161.308594 L 20.910156 58.25 L 64.523438 58.25 L 64.523438 -8.664062 C 76.769531 0 92.007812 5.078125 108.734375 5.078125 C 157.425781 5.078125 193.273438 -31.664062 193.273438 -80.65625 C 193.273438 -129.347656 157.425781 -165.789062 108.734375 -165.789062 Z M 105.148438 -36.445312 C 79.757812 -36.445312 61.238281 -55.261719 61.238281 -80.65625 C 61.238281 -105.746094 79.757812 -124.863281 105.148438 -124.863281 C 130.539062 -124.863281 149.0625 -105.746094 149.0625 -80.65625 C 149.0625 -55.261719 130.539062 -36.445312 105.148438 -36.445312 Z M 105.148438 -36.445312 "/></g></g></g><g fill="#c1ff72" fill-opacity="1"><g transform="translate(271.645943, 260.649329)"><g><path d="M 17.625 0 L 63.925781 0 L 63.925781 -46.601562 L 17.625 -46.601562 Z M 17.625 0 "/></g></g></g></svg>