<svg xmlns="http://www.w3.org/2000/svg" xmlns:xlink="http://www.w3.org/1999/xlink" width="500" zoomAndPan="magnify" viewBox="0 0 375 374.999991" height="500" preserveAspectRatio="xMidYMid meet" version="1.0"><defs><g/><clipPath id="a7964459a5"><path d="M 0 0 L 374 0 L 374 374 L 0 374 Z M 0 0 " clip-rule="nonzero"/></clipPath><clipPath id="7eeb0e190e"><path d="M 187.5 0 C 83.945312 0 0 83.945312 0 187.5 C 0 291.054688 83.945312 375 187.5 375 C 291.054688 375 375 291.054688 375 187.5 C 375 83.945312 291.054688 0 187.5 0 " clip-rule="nonzero"/></clipPath></defs><g clip-path="url(#a7964459a5)"><g clip-path="url(#7eeb0e190e)"><path fill="#080603" d="M 0 0 L 373.039062 0 L 373.039062 373.039062 L 0 373.039062 Z M 0 0 " fill-opacity="1" fill-rule="nonzero"/></g></g><g fill="#c1ff72" fill-opacity="1"><g transform="translate(43.287096, 218.624986)"><g><path d="M 80.101562 -62.058594 L 67.917969 -24.9375 L 51.140625 -61.597656 L 46.429688 -61.597656 L 30.339844 -25.054688 L 18.042969 -62.058594 L 1.035156 -62.058594 L 21.492188 0 L 35.050781 0 L 48.84375 -32.0625 L 62.863281 0 L 76.421875 0 L 96.648438 -62.058594 Z M 80.101562 -62.058594 "/></g></g></g><g fill="#c1ff72" fill-opacity="1"><g transform="translate(135.447746, 218.624986)"><g><path d="M 80.101562 -62.058594 L 67.917969 -24.9375 L 51.140625 -61.597656 L 46.429688 -61.597656 L 30.339844 -25.054688 L 18.042969 -62.058594 L 1.035156 -62.058594 L 21.492188 0 L 35.050781 0 L 48.84375 -32.0625 L 62.863281 0 L 76.421875 0 L 96.648438 -62.058594 Z M 80.101562 -62.058594 "/></g></g></g><g fill="#c1ff72" fill-opacity="1"><g transform="translate(227.608396, 218.624986)"><g><path d="M 41.832031 -63.78125 C 34.132812 -63.78125 27.238281 -61.023438 21.949219 -56.3125 L 19.078125 -62.058594 L 8.042969 -62.058594 L 8.042969 22.410156 L 24.824219 22.410156 L 24.824219 -3.332031 C 29.535156 0 35.394531 1.953125 41.832031 1.953125 C 60.5625 1.953125 74.355469 -12.183594 74.355469 -31.027344 C 74.355469 -49.761719 60.5625 -63.78125 41.832031 -63.78125 Z M 40.453125 -14.019531 C 30.683594 -14.019531 23.558594 -21.261719 23.558594 -31.027344 C 23.558594 -40.683594 30.683594 -48.039062 40.453125 -48.039062 C 50.222656 -48.039062 57.347656 -40.683594 57.347656 -31.027344 C 57.347656 -21.261719 50.222656 -14.019531 40.453125 -14.019531 Z M 40.453125 -14.019531 "/></g></g></g><g fill="#c1ff72" fill-opacity="1"><g transform="translate(300.233651, 218.624986)"><g><path d="M 6.78125 0 L 24.59375 0 L 24.59375 -17.929688 L 6.78125 -17.929688 Z M 6.78125 0 "/></g></g></g></svg>